<svg xmlns="http://www.w3.org/2000/svg" viewBox="0 0 900 560" width="900" height="560" font-family="'Segoe UI', Arial, sans-serif">
  <defs>
    <marker id="arrow" markerWidth="8" markerHeight="8" refX="6" refY="3" orient="auto">
      <path d="M0,0 L0,6 L8,3 z" fill="#5a7a96"/>
    </marker>
    <marker id="arrow-accent" markerWidth="8" markerHeight="8" refX="6" refY="3" orient="auto">
      <path d="M0,0 L0,6 L8,3 z" fill="#00aaff"/>
    </marker>
    <marker id="arrow-green" markerWidth="8" markerHeight="8" refX="6" refY="3" orient="auto">
      <path d="M0,0 L0,6 L8,3 z" fill="#00e87a"/>
    </marker>
    <marker id="arrow-dim" markerWidth="8" markerHeight="8" refX="6" refY="3" orient="auto">
      <path d="M0,0 L0,6 L8,3 z" fill="#2a3f54"/>
    </marker>
    <filter id="glow-accent">
      <feGaussianBlur stdDeviation="3" result="blur"/>
      <feMerge><feMergeNode in="blur"/><feMergeNode in="SourceGraphic"/></feMerge>
    </filter>
    <filter id="glow-green">
      <feGaussianBlur stdDeviation="2.5" result="blur"/>
      <feMerge><feMergeNode in="blur"/><feMergeNode in="SourceGraphic"/></feMerge>
    </filter>
  </defs>

  <!-- Background -->
  <rect width="900" height="560" fill="#080b0f"/>

  <!-- Title -->
  <text x="450" y="38" text-anchor="middle" font-size="15" font-weight="600" fill="#8aafc8" letter-spacing="3" font-family="'Segoe UI', Arial, sans-serif">ZWIFT RACING HUD — ARCHITECTURE</text>
  <line x1="60" y1="50" x2="840" y2="50" stroke="#2a3f54" stroke-width="1"/>

  <!-- ── INTERNET CLOUD ── -->
  <g id="cloud">
    <ellipse cx="450" cy="105" rx="90" ry="38" fill="#0d1117" stroke="#2a3f54" stroke-width="1.5" stroke-dasharray="5,3"/>
    <text x="450" y="101" text-anchor="middle" font-size="11" fill="#5a7a96" font-weight="600" letter-spacing="1">INTERNET</text>
    <text x="450" y="116" text-anchor="middle" font-size="10" fill="#2a3f54">Zwift Servers</text>
  </g>

  <!-- ── ZWIFT PC BOX ── -->
  <g id="zwift-pc">
    <rect x="60" y="190" width="260" height="310" rx="4" fill="#0d1117" stroke="#2a3f54" stroke-width="1.5"/>
    <rect x="60" y="190" width="260" height="28" rx="4" fill="#111820"/>
    <rect x="60" y="204" width="260" height="14" fill="#111820"/>
    <text x="190" y="209" text-anchor="middle" font-size="10" font-weight="700" fill="#5a7a96" letter-spacing="2">ZWIFT PC</text>

    <!-- Zwift app -->
    <rect x="80" y="234" width="220" height="52" rx="3" fill="#080b0f" stroke="#2a3f54" stroke-width="1"/>
    <text x="190" y="253" text-anchor="middle" font-size="11" font-weight="600" fill="#d8eaf8">Zwift</text>
    <text x="190" y="269" text-anchor="middle" font-size="10" fill="#5a7a96">game client</text>

    <!-- Divider -->
    <line x1="80" y1="302" x2="300" y2="302" stroke="#1e2d3d" stroke-width="1"/>
    <text x="190" y="320" text-anchor="middle" font-size="9" fill="#2a3f54" letter-spacing="1.5">BROWSER WINDOWS</text>

    <!-- Left panel browser -->
    <rect x="80" y="330" width="100" height="78" rx="3" fill="#080b0f" stroke="#00aaff" stroke-width="1" opacity="0.7"/>
    <rect x="80" y="330" width="100" height="14" rx="3" fill="#111820"/>
    <rect x="80" y="340" width="100" height="4" fill="#111820"/>
    <text x="130" y="342" text-anchor="middle" font-size="8" fill="#5a7a96" letter-spacing="1">CHROME</text>
    <text x="130" y="360" text-anchor="middle" font-size="10" font-weight="600" fill="#00aaff">index.html</text>
    <text x="130" y="374" text-anchor="middle" font-size="9" fill="#5a7a96">Left Panel</text>
    <text x="130" y="388" text-anchor="middle" font-size="8" fill="#2a3f54">power · HR · nearby</text>

    <!-- Right panel browser -->
    <rect x="200" y="330" width="100" height="78" rx="3" fill="#080b0f" stroke="#00aaff" stroke-width="1" opacity="0.7"/>
    <rect x="200" y="330" width="100" height="14" rx="3" fill="#111820"/>
    <rect x="200" y="340" width="100" height="4" fill="#111820"/>
    <text x="250" y="342" text-anchor="middle" font-size="8" fill="#5a7a96" letter-spacing="1">CHROME</text>
    <text x="250" y="360" text-anchor="middle" font-size="10" font-weight="600" fill="#00aaff">right.html</text>
    <text x="250" y="374" text-anchor="middle" font-size="9" fill="#5a7a96">Right Panel</text>
    <text x="250" y="388" text-anchor="middle" font-size="8" fill="#2a3f54">position · map · groups</text>

    <!-- Monitor label -->
    <rect x="80" y="422" width="220" height="22" rx="2" fill="#080b0f" stroke="#1e2d3d" stroke-width="1"/>
    <text x="190" y="437" text-anchor="middle" font-size="9" fill="#2a3f54" letter-spacing="1">ULTRAWIDE MONITOR</text>

    <!-- bracket lines connecting panels to monitor label -->
    <line x1="130" y1="408" x2="130" y2="422" stroke="#1e2d3d" stroke-width="1"/>
    <line x1="250" y1="408" x2="250" y2="422" stroke="#1e2d3d" stroke-width="1"/>
    <line x1="130" y1="422" x2="250" y2="422" stroke="#1e2d3d" stroke-width="1"/>
  </g>

  <!-- ── SAUCE LAPTOP BOX ── -->
  <g id="sauce-laptop">
    <rect x="580" y="190" width="260" height="200" rx="4" fill="#0d1117" stroke="#2a3f54" stroke-width="1.5"/>
    <rect x="580" y="190" width="260" height="28" rx="4" fill="#111820"/>
    <rect x="580" y="204" width="260" height="14" fill="#111820"/>
    <text x="710" y="209" text-anchor="middle" font-size="10" font-weight="700" fill="#5a7a96" letter-spacing="2">LAPTOP</text>

    <!-- Sauce app -->
    <rect x="600" y="234" width="220" height="70" rx="3" fill="#080b0f" stroke="#00e87a" stroke-width="1" opacity="0.8"/>
    <text x="710" y="257" text-anchor="middle" font-size="12" font-weight="700" fill="#00e87a" filter="url(#glow-green)">Sauce for Zwift</text>
    <text x="710" y="274" text-anchor="middle" font-size="10" fill="#5a7a96">telemetry processor</text>
    <text x="710" y="289" text-anchor="middle" font-size="9" fill="#2a3f54">w/kg · W' balance · groups · gaps</text>

    <!-- REST API -->
    <rect x="600" y="320" width="220" height="52" rx="3" fill="#080b0f" stroke="#2a3f54" stroke-width="1"/>
    <text x="710" y="341" text-anchor="middle" font-size="11" font-weight="600" fill="#d8eaf8">REST API</text>
    <text x="710" y="357" text-anchor="middle" font-size="10" fill="#5a7a96">localhost:1080/api/</text>
    <text x="710" y="370" text-anchor="middle" font-size="9" fill="#2a3f54">nearby · groups · athlete · chat</text>
  </g>

  <!-- ── APPLE TV OPTIONAL BOX ── -->
  <g id="appletv">
    <rect x="580" y="420" width="260" height="80" rx="4" fill="#0d1117" stroke="#2a3f54" stroke-width="1.5" stroke-dasharray="6,3"/>
    <text x="710" y="448" text-anchor="middle" font-size="10" font-weight="700" fill="#5a7a96" letter-spacing="2">APPLE TV  <tspan font-size="9" fill="#2a3f54">(optional)</tspan></text>
    <text x="710" y="466" text-anchor="middle" font-size="11" font-weight="600" fill="#d8eaf8">Zwift</text>
    <text x="710" y="482" text-anchor="middle" font-size="9" fill="#5a7a96">same local network as laptop</text>
  </g>

  <!-- ── ARROWS ── -->

  <!-- Zwift PC ↔ Zwift Servers (internet) -->
  <line x1="190" y1="190" x2="380" y2="132" stroke="#2a3f54" stroke-width="1.5" stroke-dasharray="5,3" marker-end="url(#arrow-dim)"/>
  <line x1="380" y1="118" x2="190" y2="176" stroke="#2a3f54" stroke-width="1.5" stroke-dasharray="5,3" marker-end="url(#arrow-dim)"/>

  <!-- Sauce Laptop ↔ Zwift Servers (internet) -->
  <line x1="710" y1="190" x2="528" y2="132" stroke="#00e87a" stroke-width="1.5" stroke-dasharray="5,3" marker-end="url(#arrow-green)" opacity="0.6"/>
  <line x1="528" y1="118" x2="710" y2="176" stroke="#00e87a" stroke-width="1.5" stroke-dasharray="5,3" marker-end="url(#arrow-green)" opacity="0.6"/>

  <!-- Sauce REST API → index.html (poll) -->
  <path d="M580,340 C500,340 380,360 300,365" fill="none" stroke="#00aaff" stroke-width="1.5" marker-end="url(#arrow-accent)" opacity="0.8"/>
  <text x="430" y="335" text-anchor="middle" font-size="9" fill="#00aaff" opacity="0.7">REST poll · 1s</text>

  <!-- Sauce REST API → right.html (poll) -->
  <path d="M580,355 C520,355 400,385 300,378" fill="none" stroke="#00aaff" stroke-width="1.5" marker-end="url(#arrow-accent)" opacity="0.6"/>

  <!-- Apple TV ↔ Sauce (local network) -->
  <line x1="710" y1="420" x2="710" y2="390" stroke="#5a7a96" stroke-width="1.5" stroke-dasharray="4,3" marker-end="url(#arrow)"/>
  <text x="730" y="410" font-size="9" fill="#5a7a96">local network</text>

  <!-- Legend -->
  <g transform="translate(60, 510)">
    <line x1="0" y1="8" x2="28" y2="8" stroke="#00aaff" stroke-width="1.5" marker-end="url(#arrow-accent)"/>
    <text x="34" y="12" font-size="9" fill="#5a7a96">REST polling (1s)</text>

    <line x1="140" y1="8" x2="168" y2="8" stroke="#00e87a" stroke-width="1.5" stroke-dasharray="5,3" marker-end="url(#arrow-green)" opacity="0.7"/>
    <text x="174" y="12" font-size="9" fill="#5a7a96">Zwift telemetry</text>

    <line x1="280" y1="8" x2="308" y2="8" stroke="#2a3f54" stroke-width="1.5" stroke-dasharray="5,3" marker-end="url(#arrow-dim)"/>
    <text x="314" y="12" font-size="9" fill="#5a7a96">game traffic</text>

    <line x1="410" y1="8" x2="438" y2="8" stroke="#5a7a96" stroke-width="1.5" stroke-dasharray="4,3" marker-end="url(#arrow)"/>
    <text x="444" y="12" font-size="9" fill="#5a7a96">optional / local network</text>
  </g>
</svg>